<svg class="diagram-root" style="background: #f5f6f6" xmlns="http://www.w3.org/2000/svg" xmlns:xlink="http://www.w3.org/1999/xlink"><style>.diagram-root { font-family: "Helvetica Neue", sans-serif; font-size: 12px; } .t { overflow: visible; } .t-bg { y: 40; fill: #fff;   } .th { fill: #005aa0;   } .tht { fill: #fff; font-size: 14px;  } .tf { fill: #323c46; overflow: visible; } .tf.pk { fill: #005aa0; font-weight: bold; } .tf.fk { font-weight: bold; } .ty { fill: #adb1b5; font-weight: normal; text-anchor: end; } .r { fill: transparent; stroke: #c3c3c3; stroke-width: 1; } .l { stroke: 1; } .i { fill: #c2c7ce; stroke: #c2c7ce; } .i.ix { fill: #afb3b6; stroke: #000; } .fa { fill: transparent; overflow: visible; } .fa .bg.hover { fill: #f7f7f7; } .c { cy: 12; r: 4; stroke: #d2d2dc; fill: #d2d2dc; } .hr { fill: transparent; stroke: #323c46; stroke-opacity: 0.035; stroke-width: 13; } .dc { stroke: #fa5a3c; fill: #fa5a3c; } .x { stroke: white; stroke-width: 1; } .hl .th { fill: #1b9bff; } .hl .tht {  } .fhl .bg { fill: #e7f4ff; } .fhls .bg {  } .r.hl { stroke: #1b9bff; } .dim { opacity: 0.25; }</style><g class="drawing-wrapper" transform="translate(76.44222222222221, 120.00222222222223) scale(1,1)"><g class="rs"><path d="M 417.67 643.89 m -1, 0 a 1,1 0 1,0 2,0 a 1,1 0 1,0 -2,0 M 417.67 643.89 m -0.5, 0 a 0.5,0.5 0 1,0 1,0 a 0.5,0.5 0 1,0 -1,0  M417.67 643.89 L417.67 643.89 405.67 643.89 M411.67 649.89 L411.67 649.89 411.67 637.89 M405.67 643.89 Q 340.13 643.89, 274.58 305.45 T 143.48 -33 M 131.48 -33 m -1, 0 a 1,1 0 1,0 2,0 a 1,1 0 1,0 -2,0 M 131.48 -33 m -0.5, 0 a 0.5,0.5 0 1,0 1,0 a 0.5,0.5 0 1,0 -1,0  M131.48 -33 L131.48 -33 143.48 -33 M137.48 -27 L137.48 -27 137.48 -39" id="h3508398171" class="r"></path><path d="M -26.11 316.11 m -1, 0 a 1,1 0 1,0 2,0 a 1,1 0 1,0 -2,0 M -26.11 316.11 m -0.5, 0 a 0.5,0.5 0 1,0 1,0 a 0.5,0.5 0 1,0 -1,0  M-26.11 316.11 L-26.11 316.11 -38.11 316.11 M -26.11 322.11 m -1, 0 a 1,1 0 1,0 2,0 a 1,1 0 1,0 -2,0 M -26.11 322.11 m -0.5, 0 a 0.5,0.5 0 1,0 1,0 a 0.5,0.5 0 1,0 -1,0  M-26.11 322.11 L-26.11 322.11 -33.11 316.11 -26.11 310.11 M -26.11 310.11 m -1, 0 a 1,1 0 1,0 2,0 a 1,1 0 1,0 -2,0 M -26.11 310.11 m -0.5, 0 a 0.5,0.5 0 1,0 1,0 a 0.5,0.5 0 1,0 -1,0  M-38.11 316.11 C -133.438 316.11, -116.44 -33, -66.44 -33 M -54.44 -33 m -1, 0 a 1,1 0 1,0 2,0 a 1,1 0 1,0 -2,0 M -54.44 -33 m -0.5, 0 a 0.5,0.5 0 1,0 1,0 a 0.5,0.5 0 1,0 -1,0  M-54.44 -33 L-54.44 -33 -66.44 -33 M -54.44 -27 m -1, 0 a 1,1 0 1,0 2,0 a 1,1 0 1,0 -2,0 M -54.44 -27 m -0.5, 0 a 0.5,0.5 0 1,0 1,0 a 0.5,0.5 0 1,0 -1,0  M-54.44 -27 L-54.44 -27 -61.44 -33 -54.44 -39 M -54.44 -39 m -1, 0 a 1,1 0 1,0 2,0 a 1,1 0 1,0 -2,0 M -54.44 -39 m -0.5, 0 a 0.5,0.5 0 1,0 1,0 a 0.5,0.5 0 1,0 -1,0 " id="h3185926206" class="r"></path><path d="M -15.99 563.9 m -1, 0 a 1,1 0 1,0 2,0 a 1,1 0 1,0 -2,0 M -15.99 563.9 m -0.5, 0 a 0.5,0.5 0 1,0 1,0 a 0.5,0.5 0 1,0 -1,0  M-15.99 563.9 L-15.99 563.9 -27.990000000000002 563.9 M -15.99 569.9 m -1, 0 a 1,1 0 1,0 2,0 a 1,1 0 1,0 -2,0 M -15.99 569.9 m -0.5, 0 a 0.5,0.5 0 1,0 1,0 a 0.5,0.5 0 1,0 -1,0  M-15.99 569.9 L-15.99 569.9 -22.990000000000002 563.9 -15.99 557.9 M -15.99 557.9 m -1, 0 a 1,1 0 1,0 2,0 a 1,1 0 1,0 -2,0 M -15.99 557.9 m -0.5, 0 a 0.5,0.5 0 1,0 1,0 a 0.5,0.5 0 1,0 -1,0  M-27.990000000000002 563.9 C -139.51 563.9, -116.44 -33, -66.44 -33 M -54.44 -33 m -1, 0 a 1,1 0 1,0 2,0 a 1,1 0 1,0 -2,0 M -54.44 -33 m -0.5, 0 a 0.5,0.5 0 1,0 1,0 a 0.5,0.5 0 1,0 -1,0  M-54.44 -33 L-54.44 -33 -66.44 -33 M -54.44 -27 m -1, 0 a 1,1 0 1,0 2,0 a 1,1 0 1,0 -2,0 M -54.44 -27 m -0.5, 0 a 0.5,0.5 0 1,0 1,0 a 0.5,0.5 0 1,0 -1,0  M-54.44 -27 L-54.44 -27 -61.44 -33 -54.44 -39 M -54.44 -39 m -1, 0 a 1,1 0 1,0 2,0 a 1,1 0 1,0 -2,0 M -54.44 -39 m -0.5, 0 a 0.5,0.5 0 1,0 1,0 a 0.5,0.5 0 1,0 -1,0 " id="h3269698770" class="r"></path><path d="M 415.34 48.33 m -1, 0 a 1,1 0 1,0 2,0 a 1,1 0 1,0 -2,0 M 415.34 48.33 m -0.5, 0 a 0.5,0.5 0 1,0 1,0 a 0.5,0.5 0 1,0 -1,0  M415.34 48.33 L415.34 48.33 403.34 48.33 M409.34 54.33 L409.34 54.33 409.34 42.33 M403.34 48.33 Q 338.38 48.33, 273.41 7.66 T 143.48 -33 M 131.48 -33 m -1, 0 a 1,1 0 1,0 2,0 a 1,1 0 1,0 -2,0 M 131.48 -33 m -0.5, 0 a 0.5,0.5 0 1,0 1,0 a 0.5,0.5 0 1,0 -1,0  M131.48 -33 L131.48 -33 143.48 -33 M137.48 -27 L137.48 -27 137.48 -39" id="h2425001935" class="r"></path><path d="M 580.61 73.33 m -1, 0 a 1,1 0 1,0 2,0 a 1,1 0 1,0 -2,0 M 580.61 73.33 m -0.5, 0 a 0.5,0.5 0 1,0 1,0 a 0.5,0.5 0 1,0 -1,0  M580.61 73.33 L580.61 73.33 592.61 73.33 M586.61 79.33 L586.61 79.33 586.61 67.33 M592.61 73.33 Q 626.24 73.33, 659.86 67.78 T 727.11 62.22 M 739.11 62.22 m -1, 0 a 1,1 0 1,0 2,0 a 1,1 0 1,0 -2,0 M 739.11 62.22 m -0.5, 0 a 0.5,0.5 0 1,0 1,0 a 0.5,0.5 0 1,0 -1,0  M739.11 62.22 L739.11 62.22 727.11 62.22 M 739.11 68.22 m -1, 0 a 1,1 0 1,0 2,0 a 1,1 0 1,0 -2,0 M 739.11 68.22 m -0.5, 0 a 0.5,0.5 0 1,0 1,0 a 0.5,0.5 0 1,0 -1,0  M739.11 68.22 L739.11 68.22 732.11 62.22 739.11 56.22 M 739.11 56.22 m -1, 0 a 1,1 0 1,0 2,0 a 1,1 0 1,0 -2,0 M 739.11 56.22 m -0.5, 0 a 0.5,0.5 0 1,0 1,0 a 0.5,0.5 0 1,0 -1,0 " id="h1018234096" class="r"></path><path d="M 580.61 98.33 m -1, 0 a 1,1 0 1,0 2,0 a 1,1 0 1,0 -2,0 M 580.61 98.33 m -0.5, 0 a 0.5,0.5 0 1,0 1,0 a 0.5,0.5 0 1,0 -1,0  M580.61 98.33 L580.61 98.33 592.61 98.33 M586.61 104.33 L586.61 104.33 586.61 92.33 M592.61 98.33 C 642.61 98.33, 670.75 294.22, 545.71 294.22 M 533.71 294.22 m -1, 0 a 1,1 0 1,0 2,0 a 1,1 0 1,0 -2,0 M 533.71 294.22 m -0.5, 0 a 0.5,0.5 0 1,0 1,0 a 0.5,0.5 0 1,0 -1,0  M533.71 294.22 L533.71 294.22 545.71 294.22 M539.71 300.22 L539.71 300.22 539.71 288.22" id="h3418144434" class="r"></path><path d="M 739.11 137.22 m -1, 0 a 1,1 0 1,0 2,0 a 1,1 0 1,0 -2,0 M 739.11 137.22 m -0.5, 0 a 0.5,0.5 0 1,0 1,0 a 0.5,0.5 0 1,0 -1,0  M739.11 137.22 L739.11 137.22 727.11 137.22 M733.11 143.22 L733.11 143.22 733.11 131.22 M727.11 137.22 C 669.638 137.22, 672.44 326.45, 722.44 326.45 M 734.44 326.45 m -1, 0 a 1,1 0 1,0 2,0 a 1,1 0 1,0 -2,0 M 734.44 326.45 m -0.5, 0 a 0.5,0.5 0 1,0 1,0 a 0.5,0.5 0 1,0 -1,0  M734.44 326.45 L734.44 326.45 722.44 326.45 M 734.44 332.45 m -1, 0 a 1,1 0 1,0 2,0 a 1,1 0 1,0 -2,0 M 734.44 332.45 m -0.5, 0 a 0.5,0.5 0 1,0 1,0 a 0.5,0.5 0 1,0 -1,0  M734.44 332.45 L734.44 332.45 727.44 326.45 734.44 320.45 M 734.44 320.45 m -1, 0 a 1,1 0 1,0 2,0 a 1,1 0 1,0 -2,0 M 734.44 320.45 m -0.5, 0 a 0.5,0.5 0 1,0 1,0 a 0.5,0.5 0 1,0 -1,0 " id="h2643738940" class="r"></path><path d="M 533.71 319.22 m -1, 0 a 1,1 0 1,0 2,0 a 1,1 0 1,0 -2,0 M 533.71 319.22 m -0.5, 0 a 0.5,0.5 0 1,0 1,0 a 0.5,0.5 0 1,0 -1,0  M533.71 319.22 L533.71 319.22 545.71 319.22 M539.71 325.22 L539.71 325.22 539.71 313.22 M545.71 319.22 C 670.75 319.22, 642.61 -1.6700000000000017, 592.61 -1.6700000000000017 M 580.61 -1.6700000000000017 m -1, 0 a 1,1 0 1,0 2,0 a 1,1 0 1,0 -2,0 M 580.61 -1.6700000000000017 m -0.5, 0 a 0.5,0.5 0 1,0 1,0 a 0.5,0.5 0 1,0 -1,0  M580.61 -1.6700000000000017 L580.61 -1.6700000000000017 592.61 -1.6700000000000017 M586.61 4.329999999999998 L586.61 4.329999999999998 586.61 -7.670000000000002" id="h4270325959" class="r"></path><path d="M 362.23 344.22 m -1, 0 a 1,1 0 1,0 2,0 a 1,1 0 1,0 -2,0 M 362.23 344.22 m -0.5, 0 a 0.5,0.5 0 1,0 1,0 a 0.5,0.5 0 1,0 -1,0  M362.23 344.22 L362.23 344.22 350.23 344.22 M356.23 350.22 L356.23 350.22 356.23 338.22 M350.23 344.22 Q 298.55 344.22, 246.86 155.61 T 143.48 -33 M 131.48 -33 m -1, 0 a 1,1 0 1,0 2,0 a 1,1 0 1,0 -2,0 M 131.48 -33 m -0.5, 0 a 0.5,0.5 0 1,0 1,0 a 0.5,0.5 0 1,0 -1,0  M131.48 -33 L131.48 -33 143.48 -33 M137.48 -27 L137.48 -27 137.48 -39" id="h3158736257" class="r"></path></g><g class="hrs"></g><g class="ts"><svg width="185.92" height="225" x="-54.44" y="-90" id="h1537667952" class="t"><rect height="40" width="185.92" class="th"></rect><text x="13" y="25" class="tht">User</text><rect height="185" width="185.92" class="t-bg" y="40"></rect><text x="13" y="61" class="tf pk">user_id<tspan x="172.92" class="ty">int</tspan></text><path d="M7,14A2,2 0 0,1 5,12A2,2 0 0,1 7,10A2,2 0 0,1 9,12A2,2 0 0,1 7,14M12.65,10C11.83,7.67 9.61,6 7, 6A6, 6 0 0, 0 1, 12A6, 6 0 0, 0 7, 18C9.61, 18 11.83, 16.33 12.65, 14H17V18H21V14H23V10H12.65Z" class="i pk" transform="translate(137.28666679382323, 48) scale(0.65)"></path><text x="13" y="86" class="tf">spotify_user_id<tspan x="172.92" class="ty">string</tspan></text><path d="M22,18V22H18V19H15V16H12L9.74,13.74C9.19,13.91 8.61,14 8,14A6,6 0 0,1 2,8A6,6 0 0,1 8,2A6,6 0 0,1 14,8C14,8.61 13.91, 9.19 13.74, 9.74L22, 18M7, 5A2, 2 0 0, 0 5, 7A2, 2 0 0, 0 7, 9A2, 2 0 0, 0 9, 7A2, 2 0 0, 0 7, 5Z" class="i uq" transform="translate(122.48666564941405, 75.5) scale(0.5)"></path><text x="13" y="111" class="tf">display_name<tspan x="172.92" class="ty">string</tspan></text><path d="M814.545 581.818v-23.273H535.273v-93.09h-46.546v93.09H209.455v139.637H256V605.09h232.727v93.09h46.546v-93.09H768v93.09h46.545V581.819zM674.91 465.455H349.091V139.636h325.818v325.819zM325.82 884.364H139.635V698.182h186.182v186.182z m279.272 0H418.909V698.182h186.182v186.182z m279.273 0H698.182V698.182h186.182v186.182zM395.636 418.909h232.728V186.182H395.636v232.727zM186.182 837.82h93.09v-93.092h-93.09v93.091z m279.273 0h93.09v-93.092h-93.09v93.091z m279.272 0h93.091v-93.092h-93.09v93.091z" class="i ix" transform="translate(123.48666564941405, 100) scale(0.014)"></path><text x="13" y="136" class="tf">email<tspan x="172.92" class="ty">string</tspan></text><path d="M22,18V22H18V19H15V16H12L9.74,13.74C9.19,13.91 8.61,14 8,14A6,6 0 0,1 2,8A6,6 0 0,1 8,2A6,6 0 0,1 14,8C14,8.61 13.91, 9.19 13.74, 9.74L22, 18M7, 5A2, 2 0 0, 0 5, 7A2, 2 0 0, 0 7, 9A2, 2 0 0, 0 9, 7A2, 2 0 0, 0 7, 5Z" class="i uq" transform="translate(122.48666564941405, 125.5) scale(0.5)"></path><text x="13" y="161" class="tf">spotify_uri<tspan x="172.92" class="ty">string</tspan></text><path d="M22,18V22H18V19H15V16H12L9.74,13.74C9.19,13.91 8.61,14 8,14A6,6 0 0,1 2,8A6,6 0 0,1 8,2A6,6 0 0,1 14,8C14,8.61 13.91, 9.19 13.74, 9.74L22, 18M7, 5A2, 2 0 0, 0 5, 7A2, 2 0 0, 0 7, 9A2, 2 0 0, 0 9, 7A2, 2 0 0, 0 7, 5Z" class="i uq" transform="translate(122.48666564941405, 150.5) scale(0.5)"></path><text x="13" y="186" class="tf">created_date<tspan x="172.92" class="ty">datetime</tspan></text><text x="13" y="211" class="tf">updated_date<tspan x="172.92" class="ty">datetime</tspan></text></svg><svg width="183.08" height="175" x="417.67" y="561.89" id="h1368715069" class="t"><rect height="40" width="183.08" class="th"></rect><text x="13" y="25" class="tht">RefreshToken</text><rect height="135" width="183.08" class="t-bg" y="40"></rect><text x="13" y="61" class="tf pk">id<tspan x="170.08" class="ty">int</tspan></text><path d="M7,14A2,2 0 0,1 5,12A2,2 0 0,1 7,10A2,2 0 0,1 9,12A2,2 0 0,1 7,14M12.65,10C11.83,7.67 9.61,6 7, 6A6, 6 0 0, 0 1, 12A6, 6 0 0, 0 7, 18C9.61, 18 11.83, 16.33 12.65, 14H17V18H21V14H23V10H12.65Z" class="i pk" transform="translate(134.44666679382325, 48) scale(0.65)"></path><text x="13" y="86" class="tf fk">user_id<tspan x="170.08" class="ty">int</tspan></text><path d="M22,18V22H18V19H15V16H12L9.74,13.74C9.19,13.91 8.61,14 8,14A6,6 0 0,1 2,8A6,6 0 0,1 8,2A6,6 0 0,1 14,8C14,8.61 13.91, 9.19 13.74, 9.74L22, 18M7, 5A2, 2 0 0, 0 5, 7A2, 2 0 0, 0 7, 9A2, 2 0 0, 0 9, 7A2, 2 0 0, 0 7, 5Z" class="i uq" transform="translate(138.44666679382325, 75.5) scale(0.5)"></path><text x="13" y="111" class="tf">token<tspan x="170.08" class="ty">string</tspan></text><path d="M22,18V22H18V19H15V16H12L9.74,13.74C9.19,13.91 8.61,14 8,14A6,6 0 0,1 2,8A6,6 0 0,1 8,2A6,6 0 0,1 14,8C14,8.61 13.91, 9.19 13.74, 9.74L22, 18M7, 5A2, 2 0 0, 0 5, 7A2, 2 0 0, 0 7, 9A2, 2 0 0, 0 9, 7A2, 2 0 0, 0 7, 5Z" class="i uq" transform="translate(119.64666564941408, 100.5) scale(0.5)"></path><text x="13" y="136" class="tf">created_date<tspan x="170.08" class="ty">datetime</tspan></text><text x="13" y="161" class="tf">updated_date<tspan x="170.08" class="ty">datetime</tspan></text></svg><svg width="190.28" height="175" x="-26.11" y="209.11" id="h3281230009" class="t"><rect height="40" width="190.28" class="th"></rect><text x="13" y="25" class="tht">Tracks</text><rect height="135" width="190.28" class="t-bg" y="40"></rect><text x="13" y="61" class="tf pk">track_id<tspan x="177.28" class="ty">int</tspan></text><path d="M7,14A2,2 0 0,1 5,12A2,2 0 0,1 7,10A2,2 0 0,1 9,12A2,2 0 0,1 7,14M12.65,10C11.83,7.67 9.61,6 7, 6A6, 6 0 0, 0 1, 12A6, 6 0 0, 0 7, 18C9.61, 18 11.83, 16.33 12.65, 14H17V18H21V14H23V10H12.65Z" class="i pk" transform="translate(141.64666679382324, 48) scale(0.65)"></path><text x="13" y="86" class="tf">spotify_track_id<tspan x="177.28" class="ty">string</tspan></text><path d="M22,18V22H18V19H15V16H12L9.74,13.74C9.19,13.91 8.61,14 8,14A6,6 0 0,1 2,8A6,6 0 0,1 8,2A6,6 0 0,1 14,8C14,8.61 13.91, 9.19 13.74, 9.74L22, 18M7, 5A2, 2 0 0, 0 5, 7A2, 2 0 0, 0 7, 9A2, 2 0 0, 0 9, 7A2, 2 0 0, 0 7, 5Z" class="i uq" transform="translate(126.84666564941406, 75.5) scale(0.5)"></path><text x="13" y="111" class="tf fk">user_id<tspan x="177.28" class="ty">int</tspan></text><path d="M814.545 581.818v-23.273H535.273v-93.09h-46.546v93.09H209.455v139.637H256V605.09h232.727v93.09h46.546v-93.09H768v93.09h46.545V581.819zM674.91 465.455H349.091V139.636h325.818v325.819zM325.82 884.364H139.635V698.182h186.182v186.182z m279.272 0H418.909V698.182h186.182v186.182z m279.273 0H698.182V698.182h186.182v186.182zM395.636 418.909h232.728V186.182H395.636v232.727zM186.182 837.82h93.09v-93.092h-93.09v93.091z m279.273 0h93.09v-93.092h-93.09v93.091z m279.272 0h93.091v-93.092h-93.09v93.091z" class="i ix" transform="translate(146.64666679382324, 100) scale(0.014)"></path><text x="13" y="136" class="tf">created_date<tspan x="177.28" class="ty">datetime</tspan></text><text x="13" y="161" class="tf">updated_date<tspan x="177.28" class="ty">datetime</tspan></text></svg><svg width="191.02" height="175" x="-15.99" y="456.9" id="h3516960154" class="t"><rect height="40" width="191.02" class="th"></rect><text x="13" y="25" class="tht">Artists</text><rect height="135" width="191.02" class="t-bg" y="40"></rect><text x="13" y="61" class="tf pk">artist_id<tspan x="178.02" class="ty">int</tspan></text><path d="M7,14A2,2 0 0,1 5,12A2,2 0 0,1 7,10A2,2 0 0,1 9,12A2,2 0 0,1 7,14M12.65,10C11.83,7.67 9.61,6 7, 6A6, 6 0 0, 0 1, 12A6, 6 0 0, 0 7, 18C9.61, 18 11.83, 16.33 12.65, 14H17V18H21V14H23V10H12.65Z" class="i pk" transform="translate(142.38666679382325, 48) scale(0.65)"></path><text x="13" y="86" class="tf">spotify_artist_id<tspan x="178.02" class="ty">string</tspan></text><path d="M22,18V22H18V19H15V16H12L9.74,13.74C9.19,13.91 8.61,14 8,14A6,6 0 0,1 2,8A6,6 0 0,1 8,2A6,6 0 0,1 14,8C14,8.61 13.91, 9.19 13.74, 9.74L22, 18M7, 5A2, 2 0 0, 0 5, 7A2, 2 0 0, 0 7, 9A2, 2 0 0, 0 9, 7A2, 2 0 0, 0 7, 5Z" class="i uq" transform="translate(127.58666564941407, 75.5) scale(0.5)"></path><text x="13" y="111" class="tf fk">user_id<tspan x="178.02" class="ty">int</tspan></text><path d="M814.545 581.818v-23.273H535.273v-93.09h-46.546v93.09H209.455v139.637H256V605.09h232.727v93.09h46.546v-93.09H768v93.09h46.545V581.819zM674.91 465.455H349.091V139.636h325.818v325.819zM325.82 884.364H139.635V698.182h186.182v186.182z m279.272 0H418.909V698.182h186.182v186.182z m279.273 0H698.182V698.182h186.182v186.182zM395.636 418.909h232.728V186.182H395.636v232.727zM186.182 837.82h93.09v-93.092h-93.09v93.091z m279.273 0h93.09v-93.092h-93.09v93.091z m279.272 0h93.091v-93.092h-93.09v93.091z" class="i ix" transform="translate(147.38666679382325, 100) scale(0.014)"></path><text x="13" y="136" class="tf">created_date<tspan x="178.02" class="ty">datetime</tspan></text><text x="13" y="161" class="tf">updated_date<tspan x="178.02" class="ty">datetime</tspan></text></svg><svg width="165.27" height="175" x="415.34" y="-58.67" id="h78672241" class="t"><rect height="40" width="165.27" class="th"></rect><text x="13" y="25" class="tht">Games</text><rect height="135" width="165.27" class="t-bg" y="40"></rect><text x="13" y="61" class="tf pk">game_id<tspan x="152.27" class="ty">int</tspan></text><path d="M7,14A2,2 0 0,1 5,12A2,2 0 0,1 7,10A2,2 0 0,1 9,12A2,2 0 0,1 7,14M12.65,10C11.83,7.67 9.61,6 7, 6A6, 6 0 0, 0 1, 12A6, 6 0 0, 0 7, 18C9.61, 18 11.83, 16.33 12.65, 14H17V18H21V14H23V10H12.65Z" class="i pk" transform="translate(116.63666679382325, 48) scale(0.65)"></path><text x="13" y="86" class="tf">game_hash<tspan x="152.27" class="ty">string</tspan></text><path d="M22,18V22H18V19H15V16H12L9.74,13.74C9.19,13.91 8.61,14 8,14A6,6 0 0,1 2,8A6,6 0 0,1 8,2A6,6 0 0,1 14,8C14,8.61 13.91, 9.19 13.74, 9.74L22, 18M7, 5A2, 2 0 0, 0 5, 7A2, 2 0 0, 0 7, 9A2, 2 0 0, 0 9, 7A2, 2 0 0, 0 7, 5Z" class="i uq" transform="translate(101.83666564941407, 75.5) scale(0.5)"></path><text x="13" y="111" class="tf fk">owner_id<tspan x="152.27" class="ty">int</tspan></text><path d="M814.545 581.818v-23.273H535.273v-93.09h-46.546v93.09H209.455v139.637H256V605.09h232.727v93.09h46.546v-93.09H768v93.09h46.545V581.819zM674.91 465.455H349.091V139.636h325.818v325.819zM325.82 884.364H139.635V698.182h186.182v186.182z m279.272 0H418.909V698.182h186.182v186.182z m279.273 0H698.182V698.182h186.182v186.182zM395.636 418.909h232.728V186.182H395.636v232.727zM186.182 837.82h93.09v-93.092h-93.09v93.091z m279.273 0h93.09v-93.092h-93.09v93.091z m279.272 0h93.091v-93.092h-93.09v93.091z" class="i ix" transform="translate(121.63666679382325, 100) scale(0.014)"></path><text x="13" y="136" class="tf fk">stages<tspan x="152.27" class="ty">int</tspan></text><path d="M814.545 581.818v-23.273H535.273v-93.09h-46.546v93.09H209.455v139.637H256V605.09h232.727v93.09h46.546v-93.09H768v93.09h46.545V581.819zM674.91 465.455H349.091V139.636h325.818v325.819zM325.82 884.364H139.635V698.182h186.182v186.182z m279.272 0H418.909V698.182h186.182v186.182z m279.273 0H698.182V698.182h186.182v186.182zM395.636 418.909h232.728V186.182H395.636v232.727zM186.182 837.82h93.09v-93.092h-93.09v93.091z m279.273 0h93.09v-93.092h-93.09v93.091z m279.272 0h93.091v-93.092h-93.09v93.091z" class="i ix" transform="translate(121.63666679382325, 125) scale(0.014)"></path><text x="13" y="161" class="tf fk">scoreboard_id<tspan x="152.27" class="ty">int</tspan></text><path d="M814.545 581.818v-23.273H535.273v-93.09h-46.546v93.09H209.455v139.637H256V605.09h232.727v93.09h46.546v-93.09H768v93.09h46.545V581.819zM674.91 465.455H349.091V139.636h325.818v325.819zM325.82 884.364H139.635V698.182h186.182v186.182z m279.272 0H418.909V698.182h186.182v186.182z m279.273 0H698.182V698.182h186.182v186.182zM395.636 418.909h232.728V186.182H395.636v232.727zM186.182 837.82h93.09v-93.092h-93.09v93.091z m279.273 0h93.09v-93.092h-93.09v93.091z m279.272 0h93.091v-93.092h-93.09v93.091z" class="i ix" transform="translate(121.63666679382325, 150) scale(0.014)"></path></svg><svg width="146.38" height="150" x="739.11" y="5.22" id="h3828934036" class="t"><rect height="40" width="146.38" class="th"></rect><text x="13" y="25" class="tht">Stages</text><rect height="110" width="146.38" class="t-bg" y="40"></rect><text x="13" y="61" class="tf pk">stage_id<tspan x="133.38" class="ty">int</tspan></text><path d="M7,14A2,2 0 0,1 5,12A2,2 0 0,1 7,10A2,2 0 0,1 9,12A2,2 0 0,1 7,14M12.65,10C11.83,7.67 9.61,6 7, 6A6, 6 0 0, 0 1, 12A6, 6 0 0, 0 7, 18C9.61, 18 11.83, 16.33 12.65, 14H17V18H21V14H23V10H12.65Z" class="i pk" transform="translate(97.74666679382324, 48) scale(0.65)"></path><text x="13" y="86" class="tf">puzzle_type<tspan x="133.38" class="ty">int</tspan></text><text x="13" y="111" class="tf">puzzle_details<tspan x="133.38" class="ty">str</tspan></text><text x="13" y="136" class="tf fk">choice_id<tspan x="133.38" class="ty">int</tspan></text></svg><svg width="157.13" height="150" x="734.44" y="269.45" id="h701628837" class="t"><rect height="40" width="157.13" class="th"></rect><text x="13" y="25" class="tht">Choices</text><rect height="110" width="157.13" class="t-bg" y="40"></rect><text x="13" y="61" class="tf pk">choice_id<tspan x="144.13" class="ty">int</tspan></text><path d="M7,14A2,2 0 0,1 5,12A2,2 0 0,1 7,10A2,2 0 0,1 9,12A2,2 0 0,1 7,14M12.65,10C11.83,7.67 9.61,6 7, 6A6, 6 0 0, 0 1, 12A6, 6 0 0, 0 7, 18C9.61, 18 11.83, 16.33 12.65, 14H17V18H21V14H23V10H12.65Z" class="i pk" transform="translate(108.49666679382324, 48) scale(0.65)"></path><text x="13" y="86" class="tf">asset_type<tspan x="144.13" class="ty">int</tspan></text><text x="13" y="111" class="tf">spotify_asset_id<tspan x="144.13" class="ty">str</tspan></text><text x="13" y="136" class="tf">correct<tspan x="144.13" class="ty">bool</tspan></text></svg><svg width="171.48" height="150" x="362.23" y="237.22" id="h3401055534" class="t"><rect height="40" width="171.48" class="th"></rect><text x="13" y="25" class="tht">ScoreBoard</text><rect height="110" width="171.48" class="t-bg" y="40"></rect><text x="13" y="61" class="tf pk">score_board_id<tspan x="158.48" class="ty">int</tspan></text><path d="M7,14A2,2 0 0,1 5,12A2,2 0 0,1 7,10A2,2 0 0,1 9,12A2,2 0 0,1 7,14M12.65,10C11.83,7.67 9.61,6 7, 6A6, 6 0 0, 0 1, 12A6, 6 0 0, 0 7, 18C9.61, 18 11.83, 16.33 12.65, 14H17V18H21V14H23V10H12.65Z" class="i pk" transform="translate(122.84666679382323, 48) scale(0.65)"></path><text x="13" y="86" class="tf pk">game_id<tspan x="158.48" class="ty">int</tspan></text><path d="M7,14A2,2 0 0,1 5,12A2,2 0 0,1 7,10A2,2 0 0,1 9,12A2,2 0 0,1 7,14M12.65,10C11.83,7.67 9.61,6 7, 6A6, 6 0 0, 0 1, 12A6, 6 0 0, 0 7, 18C9.61, 18 11.83, 16.33 12.65, 14H17V18H21V14H23V10H12.65Z" class="i pk" transform="translate(122.84666679382323, 73) scale(0.65)"></path><text x="13" y="111" class="tf pk">player_id<tspan x="158.48" class="ty">int</tspan></text><path d="M7,14A2,2 0 0,1 5,12A2,2 0 0,1 7,10A2,2 0 0,1 9,12A2,2 0 0,1 7,14M12.65,10C11.83,7.67 9.61,6 7, 6A6, 6 0 0, 0 1, 12A6, 6 0 0, 0 7, 18C9.61, 18 11.83, 16.33 12.65, 14H17V18H21V14H23V10H12.65Z" class="i pk" transform="translate(122.84666679382323, 98) scale(0.65)"></path><text x="13" y="136" class="tf">score<tspan x="158.48" class="ty">int</tspan></text></svg></g></g><text class="qdbd-link" x="10" y="20">www.quickdatabasediagrams.com</text></svg>